Coordinates
version=1
nRows=14
nColumns=36
inDegrees=yes

Units are S.I. units (second, meters, Newtons, ...)
If the header above contains a line with 'inDegrees', this indicates whether rotational values are in degrees (yes) or radians (no).

endheader
time	pelvis_tilt	pelvis_list	pelvis_rotation	pelvis_tx	pelvis_ty	pelvis_tz	hip_flexion_r	hip_adduction_r	hip_rotation_r	knee_angle_r	knee_angle_r_beta	ankle_angle_r	subtalar_angle_r	mtp_angle_r	hip_flexion_l	hip_adduction_l	hip_rotation_l	knee_angle_l	knee_angle_l_beta	ankle_angle_l	subtalar_angle_l	mtp_angle_l	lumbar_extension	lumbar_bending	lumbar_rotation	arm_flex_r	arm_add_r	arm_rot_r	elbow_flex_r	pro_sup_r	arm_flex_l	arm_add_l	arm_rot_l	elbow_flex_l	pro_sup_l
      0.00000000	      3.38724060	      4.13877659	     88.84127008	     -0.18366582	      0.93050695	      1.02645766	     22.20420190	      4.50004715	     -5.49864457	     24.89204391	      0.43444812	     -3.62051437	     -7.67581439	     -7.55614003	    -16.66492515	     -4.36041763	    -10.37770677	     34.41096322	      0.60058461	    -14.04376659	     -1.01759147	     -7.55614003	    -17.32961184	      5.66437823	     -3.12755226	     -1.32595433	     -7.70734998	    -43.31456237	     36.23527247	    107.73702793	     20.06692068	     -6.33000618	    -17.89368658	     48.39977818	     88.24400296
      0.01000000	      4.06366055	      4.36532606	     88.74791473	     -0.18223480	      0.93209262	      1.01183548	     21.20343709	      5.41006560	     -5.18359735	     25.41327543	      0.44354533	     -2.49013026	     -8.03544288	     -7.55262331	    -15.46958263	     -5.28082407	     -9.48593735	     37.67649376	      0.65757887	    -17.84308210	     -2.84899988	     -7.55262331	    -17.44490686	      6.34009053	     -2.62570978	     -1.12408917	     -8.09663601	    -42.97253854	     35.57756395	    106.64746790	     19.56772003	     -5.83816743	    -18.09690373	     48.22066880	     87.68413952
      0.02000000	      4.53016294	      4.31614414	     88.95732038	     -0.18146366	      0.93333251	      0.99772404	     20.48009696	      5.89395132	     -5.38159228	     25.81572958	      0.45056948	     -1.37090310	     -8.32520253	     -7.54889927	    -13.70829751	     -5.90154548	     -7.99052906	     41.12536985	      0.71777311	    -21.02392013	     -5.08852044	     -7.54889927	    -17.28160529	      6.83233051	     -2.37412527	     -0.98560636	     -8.36692844	    -42.73420939	     35.10913096	    105.78578678	     18.87226239	     -5.53681926	    -17.96078345	     48.31810117	     87.19903341
      0.03000000	      4.94549921	      4.30714977	     89.12739950	     -0.18090297	      0.93489421	      0.98389884	     19.56904115	      6.32411712	     -5.62078864	     25.91411264	      0.45228659	     -0.27528692	     -8.03925328	     -7.54684200	    -11.85353101	     -6.47152551	     -6.91522320	     44.60684409	      0.77853630	    -24.26361359	     -8.15319869	     -7.54684200	    -17.21753317	      7.27700003	     -2.02498059	     -0.80191016	     -8.58458609	    -42.78207916	     34.81562004	    105.95753746	     18.41608909	     -5.12296529	    -17.92979828	     48.04481640	     87.16237010
      0.04000000	      5.38983404	      4.35598662	     89.22583957	     -0.17995988	      0.93684568	      0.96995567	     18.44087794	      6.80001630	     -6.03410374	     25.70344782	      0.44860979	      0.66996419	     -7.46579960	     -7.54584664	    -10.09946558	     -7.18750394	     -6.33933060	     47.86474975	      0.83539748	    -27.63624968	    -10.96916728	     -7.54584664	    -17.15699596	      7.67408616	     -1.58349327	     -0.64004807	     -8.75301076	    -42.82528417	     34.50478535	    106.45311510	     17.95057994	     -4.74526964	    -17.92274246	     47.52807439	     87.31684974
      0.05000000	      5.19645857	      4.15787705	     89.52731393	     -0.18024922	      0.93860175	      0.95672423	     17.69022980	      6.49927746	     -6.35742549	     25.68031256	      0.44820601	      1.88202197	     -6.73114196	     -7.53811077	     -7.86109584	     -7.06237539	     -5.39334132	     50.98727135	      0.88989576	    -30.33409392	    -14.05553765	     -7.53811077	    -16.87502144	      7.48248203	     -1.34760842	     -0.26724019	     -8.78512801	    -43.73453411	     34.06754046	    108.80686628	     17.75316704	     -4.05571427	    -18.58305575	     46.73029738	     88.52561826
      0.06000000	      5.17172208	      4.15712698	     89.84658898	     -0.18003724	      0.94103078	      0.94368203	     16.49024287	      6.47320027	     -6.60880213	     25.13551696	      0.43869753	      2.65791000	     -6.36458988	     -7.53679047	     -5.85912766	     -7.29560061	     -4.90881167	     53.83232562	      0.93955133	    -31.01776498	    -16.19186005	     -7.53679047	    -16.87442601	      7.40878111	     -1.10742771	     -0.09856337	     -8.81760119	    -43.70751602	     34.05117744	    108.73773111	     17.29168770	     -3.87139176	    -18.30247490	     46.28471427	     88.56244642
      0.07000000	      5.01556381	      3.99903640	     90.24956616	     -0.18009557	      0.94333297	      0.93107634	     15.49812506	      6.25060985	     -7.05127120	     24.59778962	      0.42931242	      3.38767368	     -5.75467656	     -7.53526896	     -3.63755786	     -7.38465191	     -4.49036838	     56.49541171	      0.98603095	    -30.12649019	    -18.92945659	     -7.53526896	    -16.72110218	      7.22527862	     -0.97574131	      0.15161660	     -8.81328708	    -43.70177937	     34.03622540	    108.58152816	     17.07348856	     -3.48969290	    -18.50673047	     45.39788163	     88.47289686
      0.08000000	      4.88702063	      3.65663980	     90.69113160	     -0.18017296	      0.94543019	      0.91886606	     14.68543361	      6.06754916	     -7.51153515	     23.96659951	      0.41829607	      4.03569799	     -5.18692641	     -7.53361110	     -1.14146924	     -7.41059230	     -4.11567409	     58.98314759	      1.02945013	    -27.37053058	    -21.36192196	     -7.53361110	    -16.42480580	      7.07060014	     -0.87458062	      0.42536922	     -8.80573151	    -43.64534687	     34.06413116	    108.24556131	     16.81299065	     -3.14707795	    -18.74629743	     44.59098872	     88.27948948
      0.09000000	      4.42699833	      3.64398373	     90.91314429	     -0.17983487	      0.94820139	      0.90692337	     13.52382573	      5.67857191	     -7.31220700	     23.34773356	      0.40749482	      4.62904061	     -4.91493087	     -7.53280781	      0.85825040	     -7.16554955	     -4.24843229	     60.90326506	      1.06296250	    -24.18709987	    -23.13198983	     -7.53280781	    -16.58805192	      6.42877910	     -0.62745152	      0.76278573	     -8.67702078	    -43.50724761	     34.23409216	    107.82327635	     16.38091849	     -3.07191510	    -18.67370720	     44.20857919	     88.02672120
      0.10000000	      4.40519673	      2.98035096	     91.61141880	     -0.18005007	      0.94965104	      0.89511939	     13.10688864	      5.58284149	     -7.97160660	     22.69130099	      0.39603791	      5.07783013	     -4.43926943	     -7.53143842	      3.92869107	     -7.30006177	     -3.67553338	     62.90799841	      1.09795170	    -21.24663183	    -24.62621051	     -7.53143842	    -15.91464440	      6.39413879	     -0.77072110	      0.99605020	     -8.60337845	    -43.42013568	     34.41103238	    107.58990571	     16.03916618	     -2.89686754	    -18.72284748	     43.26612625	     87.86591060
      0.11000000	      4.06837930	      2.48554580	     92.04315253	     -0.17996659	      0.95144931	      0.88342788	     12.54226611	      5.24093329	     -8.19368464	     22.14379889	      0.38648220	      5.54050258	     -4.20307739	     -7.53027480	      6.68095367	     -6.90298046	     -3.26545050	     64.34447016	      1.12302286	    -18.83568684	    -27.03612207	     -7.53027480	    -15.51631362	      5.94385823	     -0.83652188	      1.40440300	     -8.43053456	    -43.37878261	     34.59293735	    107.76309230	     15.42650621	     -3.00483224	    -18.69159682	     42.82186093	     88.00301998
      0.12000000	      3.75314544	      2.13668497	     92.24515045	     -0.17964376	      0.95335212	      0.87152302	     11.79689730	      5.00212527	     -8.13739188	     21.54919761	      0.37610445	      5.93698583	     -3.93050359	     -7.52907810	      9.01301472	     -6.60027078	     -3.31268457	     65.16681933	      1.13737556	    -16.65214041	    -27.63047271	     -7.52907810	    -15.25451010	      5.47281899	     -0.66722696	      1.72321692	     -8.32247943	    -43.17878448	     34.89605215	    107.69753112	     15.03809576	     -2.87486272	    -19.05375593	     41.98919185	     87.96924234
      0.13000000	      3.33912360	      2.11040841	     92.41964613	     -0.17954783	      0.95572864	      0.85968402	     10.64113667	      4.70478417	     -7.81489632	     20.84291191	      0.36377744	      6.27409742	     -3.87695988	     -7.52904628	     10.90817470	     -6.03355303	     -3.25068905	     65.55955456	      1.14423008	    -14.61642162	    -29.27613741	     -7.52904628	    -15.41666290	      4.91211660	     -0.56824064	      2.22072662	     -8.20661529	    -43.00799469	     35.16068394	    107.92430057	     14.51222389	     -2.96483306	    -19.16992363	     41.49606099	     88.05319673
